#!OML:ASF C:\ViconDB\ViconDB\414\Spring2016\041811\Spring2016.ASF
:FULLY-SPECIFIED
:DEGREES
170
root 9.04759 17.1585 -3.34324 -173.283 1.50657 182.879
lowerback 6.71518 4.29486 1.6037
upperback 1.62246 6.09344 2.78049
thorax -2.21381 3.11483 1.44209
lowerneck -15.7549 1.90238 -4.96176
upperneck 20.5632 1.75554 7.38831
head 8.90398 1.06415 3.54494
rclavicle -4.41302e-014 -3.49861e-014
rhumerus -32.3547 7.02581 -93.5679
rradius 118.984
rwrist 5.29041
rhand -38.7869 -13.3869
rfingers 7.12502
rthumb -11.7981 -43.0346
lclavicle -4.41302e-014 -3.49861e-014
lhumerus -82.8057 -23.9029 105.312
lradius 69.7054
lwrist -11.0314
lhand -33.0722 12.8215
lfingers 7.12502
lthumb -6.28394 42.7083
rfemur 4.35988 -5.97074 24.2679
rtibia 34.4006
rfoot -168.554 16.9353
rtoes -5.47326
lfemur -46.6214 4.11521 -10.9374
ltibia 83.7301
lfoot -8.46124 -3.45015
ltoes -6.9527
171
root 8.99398 17.2502 -3.84328 -172.923 1.33614 182.673
lowerback 5.89263 4.51706 1.67941
upperback 1.38496 6.32834 2.45335
thorax -1.96 3.21686 1.1077
lowerneck -15.6836 1.60752 -5.46217
upperneck 20.8324 1.18416 8.36099
head 9.00861 0.841748 3.90559
rclavicle 3.4191e-014 -4.77083e-015
rhumerus -31.8348 8.15814 -93.461
rradius 121.269
rwrist 5.30436
rhand -39.2686 -13.172
rfingers 7.12502
rthumb -12.2626 -42.7925
lclavicle 3.4191e-014 -4.77083e-015
lhumerus -85.3845 -24.3274 105.535
lradius 71.1479
lwrist -9.75439
lhand -33.0033 12.5594
lfingers 7.12502
lthumb -6.2174 42.4482
rfemur 6.63265 -5.55067 23.7973
rtibia 32.3199
rfoot -166.773 14.847
rtoes -5.49257
lfemur -47.6913 3.62738 -11.5361
ltibia 80.4875
lfoot -10.0198 -2.83052
ltoes -7.12032
172
root 8.9376 17.3545 -4.35963 -172.77 0.98382 182.127
lowerback 5.15019 4.64535 1.37066
upperback 1.22537 6.42371 2.14308
thorax -1.70984 3.25325 1.01247
lowerneck -15.5596 1.39279 -5.68666
upperneck 21.0377 0.785003 8.81116
head 9.08251 0.669545 4.05722
rclavicle -7.11649e-014 1.51076e-014
rhumerus -31.603 9.1534 -93.2706
rradius 123.423
rwrist 5.47184
rhand -39.4462 -12.9913
rfingers 7.12502
rthumb -12.4339 -42.6015
lclavicle -7.11649e-014 1.51076e-014
lhumerus -87.448 -24.3745 105.515
lradius 72.3088
lwrist -9.09306
lhand -32.7538 12.0628
lfingers 7.12502
lthumb -5.97656 41.9585
rfemur 9.02345 -5.53146 22.84
rtibia 30.4094
rfoot -164.47 12.7018
rtoes -6.14152
lfemur -48.0689 2.79126 -12.5213
ltibia 76.6802
lfoot -11.6354 -2.54254
ltoes -7.05966
173
root 8.87626 17.4739 -4.87961 -172.455 0.386632 182.333
lowerback 4.32053 4.6793 1.71493
upperback 0.98631 6.4587 2.14841
thorax -1.45733 3.26705 0.89123
lowerneck -15.4093 1.11689 -6.10677
upperneck 21.343 0.36923 9.13391
head 9.18981 0.458254 4.19935
rclavicle -5.64548e-014 -7.95139e-015
rhumerus -31.6492 10.3405 -92.721
rradius 125.426
rwrist 5.48571
rhand -39.4096 -12.677
rfingers 7.12502
rthumb -12.3986 -42.2893
lclavicle -5.64548e-014 -7.95139e-015
lhumerus -89.1488 -24.1845 105.384
lradius 73.4127
lwrist -9.05763
lhand -32.7748 12.0238
lfingers 7.12502
lthumb -5.99683 41.919
rfemur 10.9799 -5.85733 22.7061
rtibia 28.6558
rfoot -161.644 10.1301
rtoes -7.29707
lfemur -48.4578 1.88199 -12.5912
ltibia 72.4829
lfoot -12.9137 -2.70077
ltoes -7.00227
174
root 8.82195 17.606 -5.40596 -172.475 -0.184748 181.632
lowerback 3.83381 4.79032 1.16871
upperback 0.858916 6.38778 1.88266
thorax -1.34376 3.1566 0.96246
lowerneck -15.0793 0.897547 -6.22961
upperneck 21.3295 0.0607226 9.1427
head 9.1501 0.292178 4.18045
rclavicle 3.98563e-014 5.56597e-015
rhumerus -31.8469 11.5397 -92.3018
rradius 127.109
rwrist 5.96625
rhand -39.2494 -12.5227
rfingers 7.12502
rthumb -12.2442 -42.1443
lclavicle 3.98563e-014 5.56597e-015
lhumerus -90.3011 -23.888 104.914
lradius 74.3801
lwrist -8.96008
lhand -33.055 11.7268
lfingers 7.12502
lthumb -6.26728 41.6141
rfemur 13.0525 -6.26405 21.6157
rtibia 27.132
rfoot -158.438 7.01655
rtoes -10.0871
lfemur -47.979 0.808143 -13.6333
ltibia 67.7686
lfoot -14.1603 -2.83795
ltoes -7.11794
175
root 8.76337 17.751 -5.93869 -172.442 -0.871687 181.214
lowerback 3.19032 4.70284 1.09833
upperback 0.829314 6.26793 1.56232
thorax -0.986125 3.10645 0.737828
lowerneck -15.1408 0.679423 -6.39494
upperneck 21.51 -0.296127 9.40787
head 9.25515 0.133469 4.26663
rclavicle -4.22417e-014 -2.54444e-014
rhumerus -32.0645 12.7454 -91.963
rradius 128.639
rwrist 5.97574
rhand -38.8153 -11.8114
rfingers 7.12502
rthumb -11.8255 -41.4575
lclavicle -4.22417e-014 -2.54444e-014
lhumerus -90.8572 -23.8682 104.101
lradius 75.2289
lwrist -9.26207
lhand -33.0821 11.4359
lfingers 7.12502
lthumb -6.29345 41.3224
rfemur 14.7227 -6.77848 20.9263
rtibia 25.903
rfoot -154.691 3.05599
rtoes -14.4018
lfemur -47.2942 -0.0138159 -14.3972
ltibia 62.848
lfoot -14.9778 -3.3289
ltoes -7.6141
176
root 8.71263 17.8938 -6.47266 -172.411 -1.45589 181.108
lowerback 2.65977 4.71763 1.02933
upperback 0.721878 6.2847 1.48911
thorax -0.800042 3.11962 0.742626
lowerneck -15.0502 0.374232 -6.92932
upperneck 21.655 -0.727212 9.82617
head 9.32794 -0.0781319 4.45842
rclavicle -1.33186e-014 -1.90833e-014
rhumerus -32.5925 13.8671 -91.4282
rradius 129.892
rwrist 5.76191
rhand -38.3032 -11.7087
rfingers 7.12502
rthumb -11.3317 -41.3826
lclavicle -1.33186e-014 -1.90833e-014
lhumerus -91.393 -23.9166 103.782
lradius 76.2761
lwrist -9.36138
lhand -33.3817 11.5557
lfingers 7.12502
lthumb -6.58272 41.4334
rfemur 15.9799 -7.17923 20.66
rtibia 25.2031
rfoot -151.789 -1.03194
rtoes -16.4594
lfemur -46.3826 -0.38831 -14.8567
ltibia 57.86
lfoot -15.4564 -3.80537
ltoes -8.35342
177
root 8.66798 18.0302 -7.00193 -172.396 -1.88162 180.907
lowerback 2.36532 4.75524 0.802187
upperback 0.517495 6.3376 1.3372
thorax -0.853343 3.1514 0.726248
lowerneck -14.7868 0.136743 -7.15404
upperneck 21.7554 -1.07656 9.93219
head 9.34771 -0.26389 4.49194
rclavicle 4.44284e-014 3.65764e-014
rhumerus -33.4489 14.7805 -91.018
rradius 130.844
rwrist 5.71341
rhand -37.6214 -11.3358
rfingers 7.12502
rthumb -10.6741 -41.0447
lclavicle 4.44284e-014 3.65764e-014
lhumerus -91.4138 -23.7491 103.143
lradius 77.0017
lwrist -9.85475
lhand -33.6057 11.4767
lfingers 7.12502
lthumb -6.7989 41.3476
rfemur 16.8996 -7.33706 20.3702
rtibia 25.0481
rfoot -149.914 -4.57437
rtoes -18.5519
lfemur -45.3042 -0.347453 -15.4899
ltibia 53.0661
lfoot -15.254 -4.62274
ltoes -9.61734
178
root 8.62563 18.1433 -7.51392 -172.381 -2.33149 180.886
lowerback 2.15625 4.69379 0.694389
upperback 0.365643 6.25795 1.23526
thorax -0.891967 3.11468 0.694752
lowerneck -14.7835 -0.16596 -7.8111
upperneck 21.8282 -1.54986 10.674
head 9.4261 -0.470579 4.81597
rclavicle -3.81667e-014 -6.36111e-015
rhumerus -34.2785 15.7349 -90.8208
rradius 131.238
rwrist 6.07428
rhand -37.455 -11.2428
rfingers 7.12502
rthumb -10.5136 -40.9599
lclavicle -3.81667e-014 -6.36111e-015
lhumerus -90.9333 -23.4492 102.328
lradius 77.7642
lwrist -9.87172
lhand -33.8503 11.5677
lfingers 7.12502
lthumb -7.03505 41.4308
rfemur 17.3465 -7.18657 20.5183
rtibia 25.6796
rfoot -148.903 -7.59807
rtoes -19.071
lfemur -44.247 0.110565 -15.9892
ltibia 48.7094
lfoot -14.1814 -5.68804
ltoes -9.05408
179
root 8.58822 18.2421 -8.01873 -172.428 -2.80653 181.1
lowerback 2.09183 4.66544 0.825376
upperback 0.149493 6.22917 1.11111
thorax -1.04972 3.10111 0.492532
lowerneck -14.5181 -0.432235 -7.96439
upperneck 21.847 -2.03328 11.0455
head 9.43854 -0.689599 4.91383
rclavicle -1.64991e-014 3.97569e-016
rhumerus -35.3514 16.1221 -90.6789
rradius 131.433
rwrist 5.4311
rhand -36.5459 -10.5051
rfingers 7.12502
rthumb -9.63653 -40.2647
lclavicle -1.64991e-014 3.97569e-016
lhumerus -90.335 -23.218 101.556
lradius 78.4465
lwrist -10.1486
lhand -34.1965 11.6373
lfingers 7.12502
lthumb -7.36924 41.4889
rfemur 17.3378 -6.6969 21.2232
rtibia 27.1497
rfoot -148.865 -10.2844
rtoes -19.2526
lfemur -43.2699 0.800475 -16.308
ltibia 45.0829
lfoot -12.8441 -6.77468
ltoes -9.5286
